<svg width="339" height="346" viewBox="0 0 339 346" fill="none" xmlns="http://www.w3.org/2000/svg">
<path d="M197.895 307.423L197.397 126.456L187.309 125.292L174.729 127.621L175.993 303.646L186.944 305.912L197.895 307.423Z" fill="#2F2325"/>
<path d="M20.0032 200.571V214.265H108.972V200.571H20.0032Z" fill="#2F2325" stroke="#2F2325" stroke-width="1.79925" stroke-linecap="round" stroke-linejoin="round"/>
<path d="M29.1485 153.301H15.5037V208.092H29.1485V153.301Z" fill="#2F2325" stroke="#2F2325" stroke-width="1.79925" stroke-linecap="round" stroke-linejoin="round"/>
<path d="M34.8313 208.327C34.8313 209.974 34.5078 211.606 33.8791 213.128C33.2505 214.649 32.3291 216.032 31.1677 217.196C30.0063 218.361 28.6276 219.284 27.1105 219.913C25.5934 220.542 23.9676 220.865 22.326 220.863C21.917 220.863 21.5079 220.863 21.1135 220.863C18.8381 220.637 16.6679 219.789 14.839 218.412C13.01 217.035 11.5923 215.181 10.74 213.052C9.88761 210.922 9.63326 208.599 10.0046 206.335C10.3759 204.071 11.3587 201.952 12.846 200.209C14.3333 198.466 16.2683 197.166 18.4406 196.45C20.6128 195.733 22.9392 195.628 25.1666 196.146C27.3941 196.664 29.4374 197.785 31.0744 199.387C32.7114 200.99 33.8795 203.011 34.4515 205.233C34.701 206.245 34.8285 207.284 34.8313 208.327Z" fill="#E5E5E5" stroke="#2F2325" stroke-width="0.8" stroke-linecap="round" stroke-linejoin="round"/>
<path d="M35.7516 161.746C35.7438 165.071 34.4234 168.257 32.0794 170.607C29.7355 172.957 26.5592 174.278 23.2463 174.282C22.8372 174.282 22.4282 174.282 22.0191 174.282C19.7426 174.063 17.5695 173.222 15.7363 171.849C13.903 170.477 12.4798 168.627 11.6214 166.499C10.763 164.372 10.5023 162.049 10.8677 159.783C11.233 157.518 12.2105 155.396 13.6937 153.649C15.1769 151.902 17.1091 150.596 19.28 149.875C21.451 149.153 23.7775 149.043 26.0066 149.555C28.2358 150.068 30.2821 151.185 31.923 152.784C33.5638 154.382 34.7365 156.402 35.3133 158.623C35.5939 159.641 35.7412 160.69 35.7516 161.746Z" fill="#E5E5E5" stroke="#2F2325" stroke-width="0.8" stroke-linecap="round" stroke-linejoin="round"/>
<path d="M45.1745 142.568C45.1745 148.401 42.8658 153.995 38.7562 158.12C34.6467 162.244 29.0729 164.561 23.2611 164.561C22.5306 164.561 21.8002 164.561 21.1135 164.473C17.1273 164.077 13.3257 162.591 10.1218 160.178C6.91791 157.765 4.4344 154.516 2.94118 150.786C1.44796 147.055 1.00217 142.985 1.65226 139.018C2.30236 135.051 4.02345 131.339 6.62849 128.285C9.23353 125.231 12.6228 122.952 16.428 121.696C20.2332 120.44 24.3087 120.254 28.2115 121.16C32.1143 122.066 35.6951 124.028 38.5647 126.833C41.4344 129.638 43.483 133.178 44.4879 137.07C44.941 138.868 45.1716 140.714 45.1745 142.568V142.568Z" fill="#E5E5E5" stroke="#2F2325" stroke-width="0.8" stroke-linecap="round" stroke-linejoin="round"/>
<path d="M55.3568 103.802L43.3708 124.612L42.7236 117.906L34.3286 126.985L48.3299 100.063L55.3568 103.802Z" fill="#2F2325" stroke="#2F2325" stroke-width="0.8" stroke-linecap="round" stroke-linejoin="round"/>
<path d="M58.2789 102.79L53.5018 111.807L42.8518 106.133L47.6143 97.1015C48.3678 95.6879 49.6479 94.6309 51.1752 94.1612C52.7025 93.6915 54.3529 93.8472 55.7662 94.5944V94.5944C57.1811 95.3481 58.2402 96.6343 58.7113 98.1709C59.1824 99.7074 59.0269 101.369 58.2789 102.79V102.79Z" fill="#E5E5E5" stroke="#2F2325" stroke-width="0.8" stroke-linecap="round" stroke-linejoin="round"/>
<path d="M46.6645 125.238C46.8984 123.713 46.6763 122.152 46.0262 120.754C45.3761 119.355 44.3273 118.182 43.0125 117.382C41.6977 116.582 40.1759 116.191 38.6398 116.259C37.1037 116.327 35.6222 116.851 34.3829 117.764C33.1435 118.678 32.202 119.94 31.6774 121.39C31.1527 122.841 31.0686 124.415 31.4357 125.913C31.8027 127.412 32.6044 128.768 33.7394 129.809C34.8743 130.85 36.2914 131.53 37.8115 131.763C38.8198 131.919 39.8489 131.874 40.8399 131.63C41.8309 131.387 42.7643 130.95 43.5867 130.343C44.409 129.737 45.1042 128.975 45.6323 128.098C46.1605 127.222 46.5112 126.25 46.6645 125.238V125.238Z" fill="#E5E5E5" stroke="#2F2325" stroke-width="0.8" stroke-linecap="round" stroke-linejoin="round"/>
<path d="M25.6715 90.3131L25.0287 127.496L17.096 127.364L17.7242 90.1811L25.6715 90.3131Z" fill="#2F2325" stroke="#2F2325" stroke-width="0.8" stroke-linecap="round" stroke-linejoin="round"/>
<path d="M27.8193 88.0698L27.6586 98.3331L15.5916 98.0399L15.7523 87.7766C15.7656 86.9813 15.9349 86.1965 16.2505 85.4669C16.566 84.7374 17.0217 84.0773 17.5915 83.5246C18.1613 82.9718 18.834 82.537 19.5712 82.2452C20.3084 81.9534 21.0957 81.8102 21.8881 81.8238V81.8238C22.6886 81.8351 23.4788 82.0065 24.2125 82.328C24.9462 82.6495 25.6086 83.1147 26.161 83.6964C26.7133 84.278 27.1445 84.9644 27.4292 85.7154C27.714 86.4663 27.8466 87.2668 27.8193 88.0698V88.0698Z" fill="#E5E5E5" stroke="#2F2325" stroke-width="0.8" stroke-linecap="round" stroke-linejoin="round"/>
<path d="M21.3037 128.537C25.596 128.537 29.0756 125.045 29.0756 120.737C29.0756 116.429 25.596 112.937 21.3037 112.937C17.0113 112.937 13.5317 116.429 13.5317 120.737C13.5317 125.045 17.0113 128.537 21.3037 128.537Z" fill="#E5E5E5" stroke="#2F2325" stroke-width="0.8" stroke-linecap="round" stroke-linejoin="round"/>
<path d="M45.1747 142.568C45.1747 148.401 42.8659 153.995 38.7564 158.119C34.6468 162.244 29.073 164.561 23.2612 164.561C22.5307 164.561 21.8003 164.561 21.1137 164.473C20.2741 161.219 20.1889 157.815 20.8647 154.523C21.5404 151.231 22.9591 148.138 25.0117 145.482C27.0643 142.825 29.6962 140.677 32.7053 139.201C35.7144 137.725 39.0205 136.961 42.3698 136.967C43.0856 136.967 43.8307 136.967 44.5173 137.07C44.9605 138.869 45.1813 140.715 45.1747 142.568V142.568Z" fill="#E5E5E5" stroke="#2F2325" stroke-width="0.8" stroke-linecap="round" stroke-linejoin="round"/>
<path d="M155.517 208.723C159.238 192.765 149.364 176.801 133.463 173.067C117.563 169.333 101.656 179.242 97.9355 195.201C94.2148 211.159 104.089 227.123 119.989 230.857C135.89 234.591 151.797 224.682 155.517 208.723Z" fill="#E5E5E5"/>
<path d="M287.397 297.045L298.333 305.235L330.982 261.321L320.047 253.131L287.397 297.045Z" fill="#2F2325" stroke="#2F2325" stroke-width="1.79925" stroke-linecap="round" stroke-linejoin="round"/>
<path d="M322.881 264.645L331.042 253.67L259.736 200.269L251.576 211.245L322.881 264.645Z" fill="#2F2325" stroke="#2F2325" stroke-width="1.79925" stroke-linecap="round" stroke-linejoin="round"/>
<path d="M315.616 249.527C316.6 248.204 317.834 247.088 319.247 246.243C320.661 245.399 322.226 244.842 323.855 244.605C325.483 244.368 327.141 244.456 328.736 244.862C330.33 245.269 331.829 245.987 333.147 246.976L334.096 247.753C335.786 249.299 337.02 251.282 337.666 253.483C338.311 255.685 338.343 258.022 337.757 260.241C337.171 262.459 335.99 264.474 334.343 266.066C332.696 267.658 330.645 268.766 328.414 269.27C326.183 269.774 323.857 269.654 321.689 268.923C319.521 268.193 317.594 266.88 316.118 265.127C314.642 263.374 313.673 261.248 313.316 258.981C312.96 256.714 313.23 254.393 314.097 252.269C314.489 251.296 314.999 250.375 315.616 249.527Z" fill="#E5E5E5" stroke="#2F2325" stroke-width="0.8" stroke-linecap="round" stroke-linejoin="round"/>
<path d="M287.085 284.613C288.937 281.852 291.806 279.943 295.061 279.305C298.315 278.667 301.689 279.353 304.44 281.211C304.776 281.431 305.098 281.68 305.419 281.929C307.183 283.391 308.514 285.309 309.267 287.476C310.02 289.644 310.166 291.977 309.69 294.222C309.214 296.467 308.133 298.538 306.566 300.209C304.999 301.881 303.005 303.089 300.801 303.703C298.597 304.316 296.268 304.311 294.067 303.689C291.865 303.066 289.876 301.85 288.316 300.172C286.756 298.494 285.684 296.418 285.217 294.171C284.75 291.924 284.906 289.592 285.668 287.428C286.022 286.434 286.498 285.488 287.085 284.613V284.613Z" fill="#E5E5E5" stroke="#2F2325" stroke-width="0.8" stroke-linecap="round" stroke-linejoin="round"/>
<path d="M249.533 300.32L270.092 302.347L270.869 294.409L250.31 292.382L249.533 300.32Z" fill="#2F2325" stroke="#2F2325" stroke-width="1.79925" stroke-linecap="round" stroke-linejoin="round"/>
<path d="M248.283 290.111L258.422 291.108L257.238 303.16L247.1 302.163C245.507 302.007 244.042 301.223 243.025 299.983C242.009 298.743 241.525 297.148 241.68 295.55C241.839 293.951 242.623 292.48 243.861 291.46C245.099 290.441 246.689 289.955 248.283 290.111Z" fill="#E5E5E5" stroke="#2F2325" stroke-width="0.8" stroke-linecap="round" stroke-linejoin="round"/>
<path d="M268.59 295.243C270.195 292.841 272.257 290.781 274.657 289.18C277.057 287.579 279.748 286.469 282.576 285.914C285.404 285.358 288.313 285.368 291.137 285.942C293.962 286.516 296.645 287.644 299.035 289.26C299.634 289.671 300.203 290.096 300.759 290.551C303.847 293.112 306.177 296.475 307.494 300.273C308.812 304.07 309.066 308.158 308.231 312.091C307.395 316.024 305.501 319.651 302.755 322.579C300.008 325.507 296.514 327.623 292.653 328.697C288.792 329.772 284.711 329.763 280.855 328.672C276.998 327.581 273.513 325.45 270.78 322.51C268.046 319.571 266.167 315.935 265.348 311.998C264.529 308.062 264.802 303.976 266.135 300.184C266.74 298.438 267.565 296.778 268.59 295.243Z" fill="#E5E5E5" stroke="#2F2325" stroke-width="0.8" stroke-linecap="round" stroke-linejoin="round"/>
<path d="M244.982 318.086L272.154 297.691L276.522 303.541L249.35 323.921L244.982 318.086Z" fill="#2F2325" stroke="#2F2325" stroke-width="1.79925" stroke-linecap="round" stroke-linejoin="round"/>
<path d="M242.162 317.778L249.627 312.104L256.26 320.901L248.794 326.516C247.622 327.397 246.15 327.774 244.7 327.565C243.251 327.356 241.944 326.578 241.066 325.402V325.402C240.225 324.238 239.868 322.79 240.073 321.367C240.277 319.943 241.027 318.656 242.162 317.778V317.778Z" fill="#E5E5E5" stroke="#2F2325" stroke-width="0.8" stroke-linecap="round" stroke-linejoin="round"/>
<path d="M280.072 303.981C280.417 302.475 280.309 300.9 279.761 299.456C279.214 298.012 278.251 296.764 276.995 295.87C275.74 294.976 274.248 294.476 272.709 294.434C271.17 294.393 269.653 294.81 268.351 295.635C267.049 296.459 266.02 297.653 265.395 299.065C264.77 300.477 264.577 302.044 264.841 303.566C265.104 305.089 265.812 306.498 266.875 307.616C267.938 308.734 269.307 309.51 270.81 309.846C272.813 310.293 274.91 309.927 276.645 308.829C278.38 307.73 279.612 305.987 280.072 303.981Z" fill="#E5E5E5" stroke="#2F2325" stroke-width="0.8" stroke-linecap="round" stroke-linejoin="round"/>
<path d="M294.477 338.583L298.509 310.608L304.484 311.458L300.466 339.433L294.477 338.583Z" fill="#2F2325" stroke="#2F2325" stroke-width="1.79925" stroke-linecap="round" stroke-linejoin="round"/>
<path d="M292.651 340.064L293.746 332.366L302.818 333.671L301.723 341.354C301.639 341.953 301.438 342.529 301.131 343.05C300.825 343.571 300.42 344.026 299.938 344.39C299.456 344.753 298.908 345.018 298.324 345.169C297.741 345.32 297.133 345.354 296.537 345.269V345.269C295.334 345.094 294.25 344.449 293.521 343.473C292.793 342.497 292.48 341.271 292.651 340.064V340.064Z" fill="#E5E5E5" stroke="#2F2325" stroke-width="0.8" stroke-linecap="round" stroke-linejoin="round"/>
<path d="M306.821 309.626C306.134 308.55 305.144 307.703 303.976 307.192C302.809 306.681 301.517 306.528 300.264 306.753C299.01 306.978 297.851 307.571 296.934 308.457C296.016 309.343 295.38 310.482 295.107 311.731C294.834 312.979 294.935 314.281 295.398 315.471C295.862 316.661 296.666 317.687 297.71 318.419C298.755 319.151 299.991 319.556 301.264 319.582C302.538 319.609 303.79 319.257 304.864 318.569C306.304 317.643 307.319 316.181 307.686 314.504C308.053 312.827 307.742 311.073 306.821 309.626V309.626Z" fill="#E5E5E5" stroke="#2F2325" stroke-width="0.8" stroke-linecap="round" stroke-linejoin="round"/>
<path d="M267.582 334.859L285.697 306.063L291.847 309.934L273.747 338.744L267.582 334.859Z" fill="#2F2325" stroke="#2F2325" stroke-width="1.79925" stroke-linecap="round" stroke-linejoin="round"/>
<path d="M264.85 335.563L269.802 327.645L279.167 333.51L274.199 341.442C273.418 342.683 272.179 343.563 270.752 343.89C269.326 344.217 267.829 343.964 266.588 343.187V343.187C265.353 342.405 264.476 341.164 264.15 339.735C263.825 338.306 264.076 336.806 264.85 335.563V335.563Z" fill="#E5E5E5" stroke="#2F2325" stroke-width="0.8" stroke-linecap="round" stroke-linejoin="round"/>
<path d="M295.353 309.083C295.136 307.556 294.473 306.129 293.446 304.981C292.42 303.833 291.077 303.017 289.588 302.636C288.099 302.256 286.531 302.327 285.082 302.843C283.634 303.358 282.371 304.293 281.452 305.53C280.534 306.766 280.003 308.249 279.926 309.789C279.848 311.329 280.229 312.858 281.018 314.181C281.808 315.504 282.971 316.562 284.361 317.221C285.75 317.879 287.303 318.109 288.823 317.88C290.85 317.579 292.675 316.485 293.899 314.836C295.123 313.187 295.646 311.118 295.353 309.083V309.083Z" fill="#E5E5E5" stroke="#2F2325" stroke-width="0.8" stroke-linecap="round" stroke-linejoin="round"/>
<path d="M132.22 215.232C139.525 212.175 142.977 203.752 139.93 196.421C136.884 189.089 128.492 185.625 121.187 188.682C113.881 191.74 110.429 200.162 113.476 207.494C116.523 214.826 124.915 218.29 132.22 215.232Z" fill="#2F2325" stroke="#2F2325" stroke-width="1.79925" stroke-linecap="round" stroke-linejoin="round"/>
<path d="M261.794 227.43C275.525 218.559 279.491 200.196 270.652 186.415C261.813 172.634 243.516 168.653 229.785 177.524C216.053 186.395 212.087 204.759 220.927 218.54C229.766 232.321 248.063 236.301 261.794 227.43Z" fill="#E5E5E5"/>
<path d="M258.828 208.484C262.128 201.264 258.971 192.726 251.776 189.414C244.582 186.102 236.075 189.271 232.775 196.491C229.475 203.712 232.632 212.25 239.826 215.562C247.021 218.873 255.528 215.705 258.828 208.484Z" fill="#2F2325" stroke="#2F2325" stroke-width="1.79925" stroke-linecap="round" stroke-linejoin="round"/>
<path d="M253.816 143.154C264.015 130.319 270.399 114.857 272.231 98.5436C274.064 82.2304 271.271 65.7294 264.175 50.9384C257.078 36.1473 245.966 23.6669 232.116 14.9324C218.266 6.19802 202.241 1.56436 185.884 1.56436C169.527 1.56436 153.501 6.19802 139.652 14.9324C125.802 23.6669 114.69 36.1473 107.593 50.9384C100.497 65.7294 97.704 82.2304 99.5365 98.5436C101.369 114.857 107.752 130.319 117.952 143.154H253.816Z" fill="#E5E5E5" stroke="#2F2325" stroke-width="1.79925" stroke-linecap="round" stroke-linejoin="round"/>
<path d="M239.061 55.8564H130.574C123.974 55.8564 118.624 61.226 118.624 67.8498V106.44C118.624 113.064 123.974 118.433 130.574 118.433H239.061C245.66 118.433 251.011 113.064 251.011 106.44V67.8498C251.011 61.226 245.66 55.8564 239.061 55.8564Z" fill="#2F2325"/>
<path d="M132.941 84.6084C134.376 80.5767 136.99 77.074 140.443 74.5596C143.895 72.0451 148.024 70.6361 152.288 70.5172C156.552 70.3983 160.753 71.5751 164.339 73.8934C167.925 76.2117 170.73 79.5632 172.385 83.5087" stroke="black" stroke-width="8.99623" stroke-linecap="round" stroke-linejoin="round"/>
<path d="M198.374 84.6084C199.809 80.5767 202.424 77.074 205.876 74.5596C209.329 72.0451 213.458 70.6361 217.722 70.5172C221.986 70.3983 226.186 71.5751 229.772 73.8934C233.358 76.2117 236.163 79.5632 237.819 83.5087" stroke="black" stroke-width="8.99623" stroke-linecap="round" stroke-linejoin="round"/>
<path d="M174.46 99.1089C174.826 102.016 176.237 104.69 178.428 106.628C180.619 108.565 183.438 109.635 186.359 109.635C189.279 109.635 192.098 108.565 194.289 106.628C196.48 104.69 197.891 102.016 198.258 99.1089H174.46Z" fill="#ECD6C4" stroke="#2F2325" stroke-width="1.79925" stroke-linecap="round" stroke-linejoin="round"/>
<path d="M186.22 43.4964C192.875 43.4981 199.424 41.8271 205.271 38.636C211.117 35.4449 216.074 30.8353 219.689 25.2277L227.929 12.4279C214.872 5.19133 200.179 1.4507 185.265 1.56626C170.35 1.68182 155.716 5.64967 142.773 13.0877L155.176 28.5413C158.907 33.205 163.633 36.9695 169.005 39.5576C174.378 42.1458 180.261 43.4918 186.22 43.4964Z" fill="#023730" stroke="#023730" stroke-width="1.79925" stroke-linecap="round" stroke-linejoin="round"/>
<path d="M244.222 164.37C225.625 160.162 185.362 158.652 185.362 158.652C175.662 158.96 148.665 160.118 130.067 164.385C126.547 165.188 123.483 167.351 121.541 170.406C119.6 173.461 118.936 177.161 119.695 180.704L136.919 261.579C137.765 265.5 139.922 269.014 143.03 271.536C146.139 274.059 150.014 275.44 154.012 275.449H220.409C224.407 275.44 228.282 274.059 231.391 271.536C234.499 269.014 236.656 265.5 237.502 261.579L254.711 180.704C255.467 177.143 254.788 173.426 252.823 170.366C250.858 167.306 247.766 165.15 244.222 164.37Z" fill="#E5E5E5"/>
<path d="M235.749 162.816C215.574 159.796 185.406 158.652 185.406 158.652C170.635 159.077 155.898 160.3 141.258 162.318L160.776 275.449H213.821L235.749 162.816Z" fill="#C0BBBB"/>
<path d="M202.82 183.24H170.505C163.905 183.24 158.555 188.61 158.555 195.234V211.069C158.555 217.693 163.905 223.062 170.505 223.062H202.82C209.42 223.062 214.77 217.693 214.77 211.069V195.234C214.77 188.61 209.42 183.24 202.82 183.24Z" fill="#E5E5E5"/>
<path d="M177.225 199.647H168.124V208.781H177.225V199.647Z" fill="#93BFB9" stroke="#011F1B" stroke-width="0.8" stroke-linecap="round" stroke-linejoin="round"/>
<path d="M191.206 199.647H182.104V208.781H191.206V199.647Z" fill="#93BFB9" stroke="#011F1B" stroke-width="0.8" stroke-linecap="round" stroke-linejoin="round"/>
<path d="M205.201 199.647H196.1V208.781H205.201V199.647Z" fill="#93BFB9" stroke="#011F1B" stroke-width="0.8" stroke-linecap="round" stroke-linejoin="round"/>
</svg>
